<svg xmlns="http://www.w3.org/2000/svg" width="500.011" height="36.326" viewBox="0 0 468 34">
  <defs>
    <style>
      .cls-1 {
        fill: #fff;
        fill-rule: evenodd;
      }
    </style>
  </defs>
  <path id="Lancegoyke.com" class="cls-1" d="M23.805,33.8V27.992H6.429V-0.28H-0.195V33.8h24Zm3.12,0h6.816l2.847-8.5H49.1l2.832,8.5h6.816L46.221-.28H39.5ZM38.149,20.648L42.861,6.584l4.688,14.064h-9.4ZM88.893,33.8h5.472V-0.232H87.789V22.184L70.221-.28H64.893V33.8h6.624V11.912Zm14.183-10.968a18.967,18.967,0,0,0,3.432,5.664,17.081,17.081,0,0,0,5.208,4.032,14.559,14.559,0,0,0,6.648,1.512,18.008,18.008,0,0,0,5.592-.912,16.494,16.494,0,0,0,5.088-2.688,10.529,10.529,0,0,0,3.336-4.32L127,22.952a8.433,8.433,0,0,1-2.256,3.024,9.114,9.114,0,0,1-3.024,1.68,10.252,10.252,0,0,1-3.168.528,8.847,8.847,0,0,1-4.056-.936,9.759,9.759,0,0,1-3.168-2.544,11.857,11.857,0,0,1-2.04-3.7,13.087,13.087,0,0,1-.72-4.3,13.729,13.729,0,0,1,.624-4.08,11.887,11.887,0,0,1,1.848-3.648,9.438,9.438,0,0,1,3.072-2.64,8.935,8.935,0,0,1,4.344-1.008,10.828,10.828,0,0,1,3.1.48,8.906,8.906,0,0,1,3,1.584,7.917,7.917,0,0,1,2.256,3.024l5.04-3.5a12.858,12.858,0,0,0-5.064-5.376A15.494,15.494,0,0,0,118.652-.52,16.42,16.42,0,0,0,111.6.944a16.29,16.29,0,0,0-5.3,3.912A17.321,17.321,0,0,0,103.076,22.832Zm42.792,5.16v-8.88h14.3V13.736h-14.3V5.528h16.608V-0.28H139.244V33.8h23.664V27.992h-17.04Zm48.768,1.488V22.9a15.7,15.7,0,0,1-4.416,3.936,9.91,9.91,0,0,1-4.992,1.344,9.293,9.293,0,0,1-4.032-.864A9.765,9.765,0,0,1,178,24.9a11.166,11.166,0,0,1-2.112-3.624,13.189,13.189,0,0,1-.744-4.512,13.994,13.994,0,0,1,.672-4.368,11.136,11.136,0,0,1,1.968-3.648,9.528,9.528,0,0,1,3.1-2.5,8.641,8.641,0,0,1,3.96-.912,10.091,10.091,0,0,1,5.088,1.344,8.853,8.853,0,0,1,3.6,3.888l4.944-3.648a13.053,13.053,0,0,0-5.16-5.424A17.463,17.463,0,0,0,178.508.8a15.818,15.818,0,0,0-5.256,3.7,17.771,17.771,0,0,0-3.5,5.472,17.179,17.179,0,0,0-1.272,6.6,18.486,18.486,0,0,0,1.248,6.888A17.562,17.562,0,0,0,173.2,29a15.907,15.907,0,0,0,5.16,3.72,15.107,15.107,0,0,0,6.288,1.32,13.278,13.278,0,0,0,9.984-4.56h0Zm-0.48,4.32h5.472V16.28H187.292v4.848h6.864V33.8Zm34.727-1.152a16.3,16.3,0,0,0,5.28-3.816,17.658,17.658,0,0,0,3.456-5.52,17.4,17.4,0,0,0,1.224-6.456,17.58,17.58,0,0,0-1.176-6.336,18.628,18.628,0,0,0-3.336-5.568A16.219,16.219,0,0,0,229.123.968,15.172,15.172,0,0,0,222.379-.52,15.752,15.752,0,0,0,215.707.9a16.551,16.551,0,0,0-5.3,3.84,18.408,18.408,0,0,0-3.5,5.52,16.95,16.95,0,0,0-1.272,6.5,17.454,17.454,0,0,0,1.2,6.36,18.119,18.119,0,0,0,3.408,5.568,16.382,16.382,0,0,0,5.232,3.912,15.545,15.545,0,0,0,6.768,1.44A15.8,15.8,0,0,0,228.883,32.648ZM213,12.608a11.379,11.379,0,0,1,1.92-3.648,9.813,9.813,0,0,1,3.12-2.592,8.8,8.8,0,0,1,4.2-.984,9.018,9.018,0,0,1,4.176.936,9.593,9.593,0,0,1,3.12,2.544,11.489,11.489,0,0,1,1.968,3.648,13.494,13.494,0,0,1,.672,4.248,14.2,14.2,0,0,1-.624,4.128,11.239,11.239,0,0,1-1.9,3.7,9.747,9.747,0,0,1-3.1,2.616,8.861,8.861,0,0,1-4.272.984,9.166,9.166,0,0,1-4.2-.936,9.263,9.263,0,0,1-3.12-2.544,11.693,11.693,0,0,1-1.944-3.672A13.771,13.771,0,0,1,213,12.608ZM243.067-.28L255.355,21.8v12h6.576V21.9L274.315-.28h-7.152l-8.544,16.032L250.219-.28h-7.152ZM287.082,33.8V23.61l4.368-4.519L302.01,33.8H309.5L295.626,14.861,308.682-.328h-7.3l-14.3,16.247V-0.28h-6.624V33.8h6.624Zm34.512-5.808v-8.88h14.3V13.736h-14.3V5.528H338.2V-0.28H314.97V33.8h23.664V27.992h-17.04ZM350.73,33.8V26.888H345.4V33.8h5.328Zm7.847-10.968a18.967,18.967,0,0,0,3.432,5.664,17.081,17.081,0,0,0,5.208,4.032,14.559,14.559,0,0,0,6.648,1.512,18.008,18.008,0,0,0,5.592-.912,16.494,16.494,0,0,0,5.088-2.688,10.529,10.529,0,0,0,3.336-4.32l-5.376-3.168a8.433,8.433,0,0,1-2.256,3.024,9.114,9.114,0,0,1-3.024,1.68,10.252,10.252,0,0,1-3.168.528A8.847,8.847,0,0,1,370,27.248a9.759,9.759,0,0,1-3.168-2.544,11.857,11.857,0,0,1-2.04-3.7,13.087,13.087,0,0,1-.72-4.3,13.729,13.729,0,0,1,.624-4.08,11.887,11.887,0,0,1,1.848-3.648,9.438,9.438,0,0,1,3.072-2.64,8.935,8.935,0,0,1,4.344-1.008,10.828,10.828,0,0,1,3.1.48,8.906,8.906,0,0,1,3,1.584,7.917,7.917,0,0,1,2.256,3.024l5.04-3.5a12.858,12.858,0,0,0-5.064-5.376A15.494,15.494,0,0,0,374.153-.52,16.42,16.42,0,0,0,367.1.944a16.29,16.29,0,0,0-5.3,3.912A17.321,17.321,0,0,0,358.577,22.832Zm57.36,9.816a16.3,16.3,0,0,0,5.28-3.816,17.658,17.658,0,0,0,3.456-5.52,17.4,17.4,0,0,0,1.224-6.456,17.58,17.58,0,0,0-1.176-6.336,18.649,18.649,0,0,0-3.336-5.568A16.219,16.219,0,0,0,416.177.968,15.175,15.175,0,0,0,409.433-.52,15.748,15.748,0,0,0,402.761.9a16.551,16.551,0,0,0-5.3,3.84,18.388,18.388,0,0,0-3.5,5.52,16.95,16.95,0,0,0-1.272,6.5,17.454,17.454,0,0,0,1.2,6.36,18.1,18.1,0,0,0,3.408,5.568,16.371,16.371,0,0,0,5.232,3.912,15.545,15.545,0,0,0,6.768,1.44A15.807,15.807,0,0,0,415.937,32.648Zm-15.888-20.04a11.379,11.379,0,0,1,1.92-3.648,9.8,9.8,0,0,1,3.12-2.592,8.8,8.8,0,0,1,4.2-.984,9.024,9.024,0,0,1,4.176.936,9.593,9.593,0,0,1,3.12,2.544,11.509,11.509,0,0,1,1.968,3.648,13.494,13.494,0,0,1,.672,4.248,14.23,14.23,0,0,1-.624,4.128,11.258,11.258,0,0,1-1.9,3.7,9.747,9.747,0,0,1-3.1,2.616,8.864,8.864,0,0,1-4.272.984,9.041,9.041,0,0,1-7.32-3.48,11.693,11.693,0,0,1-1.944-3.672A13.771,13.771,0,0,1,400.049,12.608Zm67.8,21.192V-0.28h-7.1L450.617,19.064,440.585-.28h-7.152V33.8h6.624V11.432l8.736,16.656h3.7l8.784-16.656V33.8h6.576Z"/>
</svg>
