<svg 
 xmlns="http://www.w3.org/2000/svg"
 xmlns:xlink="http://www.w3.org/1999/xlink"
 width="6.514in" height="0.5in">
<path fill-rule="evenodd"  fill="rgb(255, 255, 255)"
 d="M462.273,34.800 L462.273,12.432 L453.489,29.088 L449.793,29.088 L441.057,12.432 L441.057,34.800 L434.433,34.800 L434.433,0.720 L441.585,0.720 L451.617,20.064 L461.745,0.720 L468.849,0.720 L468.849,34.800 L462.273,34.800 ZM422.217,29.832 C420.729,31.448 418.969,32.720 416.937,33.648 C414.904,34.576 412.689,35.040 410.289,35.040 C407.793,35.040 405.537,34.560 403.521,33.600 C401.505,32.640 399.760,31.336 398.289,29.688 C396.817,28.040 395.680,26.184 394.881,24.120 C394.081,22.056 393.681,19.936 393.681,17.760 C393.681,15.488 394.105,13.320 394.953,11.256 C395.800,9.192 396.969,7.352 398.457,5.736 C399.945,4.120 401.713,2.840 403.761,1.896 C405.808,0.953 408.033,0.480 410.433,0.480 C412.897,0.480 415.144,0.976 417.177,1.968 C419.209,2.960 420.945,4.289 422.385,5.952 C423.825,7.616 424.936,9.473 425.721,11.520 C426.505,13.568 426.897,15.680 426.897,17.856 C426.897,20.096 426.489,22.248 425.673,24.312 C424.857,26.376 423.705,28.217 422.217,29.832 ZM419.553,13.512 C419.104,12.152 418.449,10.936 417.585,9.864 C416.721,8.792 415.681,7.944 414.465,7.320 C413.248,6.696 411.856,6.384 410.289,6.384 C408.721,6.384 407.320,6.713 406.089,7.368 C404.857,8.024 403.816,8.888 402.969,9.960 C402.121,11.033 401.481,12.248 401.049,13.608 C400.617,14.968 400.401,16.352 400.401,17.760 C400.401,19.232 400.624,20.656 401.073,22.032 C401.521,23.408 402.169,24.632 403.017,25.704 C403.864,26.776 404.905,27.624 406.137,28.248 C407.368,28.872 408.769,29.184 410.337,29.184 C411.969,29.184 413.392,28.856 414.609,28.200 C415.825,27.545 416.857,26.672 417.705,25.584 C418.552,24.496 419.185,23.264 419.601,21.888 C420.016,20.512 420.225,19.136 420.225,17.760 C420.225,16.289 420.001,14.873 419.553,13.512 ZM367.833,25.704 C368.713,26.776 369.769,27.624 371.001,28.248 C372.233,28.872 373.585,29.184 375.057,29.184 C376.081,29.184 377.137,29.008 378.225,28.656 C379.313,28.304 380.321,27.744 381.249,26.976 C382.177,26.208 382.929,25.200 383.505,23.952 L388.881,27.120 C388.177,28.817 387.065,30.257 385.545,31.440 C384.025,32.624 382.329,33.521 380.457,34.128 C378.585,34.736 376.721,35.040 374.865,35.040 C372.433,35.040 370.217,34.536 368.217,33.528 C366.217,32.520 364.481,31.176 363.009,29.496 C361.537,27.816 360.393,25.928 359.577,23.832 C358.761,21.736 358.353,19.616 358.353,17.472 C358.353,15.360 358.729,13.304 359.481,11.304 C360.233,9.304 361.337,7.488 362.793,5.856 C364.249,4.224 366.017,2.921 368.097,1.944 C370.177,0.968 372.529,0.480 375.153,0.480 C378.289,0.480 381.001,1.168 383.289,2.544 C385.577,3.920 387.265,5.712 388.353,7.920 L383.313,11.424 C382.737,10.144 381.985,9.137 381.057,8.400 C380.129,7.664 379.129,7.136 378.057,6.816 C376.985,6.496 375.953,6.336 374.961,6.336 C373.297,6.336 371.849,6.672 370.617,7.344 C369.385,8.016 368.361,8.897 367.545,9.984 C366.729,11.072 366.113,12.288 365.697,13.632 C365.281,14.976 365.073,16.336 365.073,17.712 C365.073,19.184 365.313,20.616 365.793,22.008 C366.273,23.400 366.953,24.632 367.833,25.704 ZM346.402,27.888 L351.730,27.888 L351.730,34.800 L346.402,34.800 L346.402,27.888 ZM315.970,0.720 L339.202,0.720 L339.202,6.528 L322.594,6.528 L322.594,14.736 L336.898,14.736 L336.898,20.112 L322.594,20.112 L322.594,28.992 L339.634,28.992 L339.634,34.800 L315.970,34.800 L315.970,0.720 ZM303.010,34.800 L292.450,20.091 L288.082,24.610 L288.082,34.800 L281.458,34.800 L281.458,0.720 L288.082,0.720 L288.082,16.918 L302.386,0.672 L309.682,0.672 L296.626,15.861 L310.498,34.800 L303.010,34.800 ZM262.931,34.800 L256.355,34.800 L256.355,22.800 L244.067,0.720 L251.219,0.720 L259.619,16.752 L268.163,0.720 L275.315,0.720 L262.931,22.896 L262.931,34.800 ZM235.163,29.832 C233.675,31.448 231.915,32.720 229.883,33.648 C227.851,34.576 225.635,35.040 223.235,35.040 C220.739,35.040 218.483,34.560 216.467,33.600 C214.451,32.640 212.707,31.336 211.235,29.688 C209.763,28.040 208.627,26.184 207.827,24.120 C207.027,22.056 206.627,19.936 206.627,17.760 C206.627,15.488 207.051,13.320 207.899,11.256 C208.747,9.192 209.915,7.352 211.403,5.736 C212.891,4.120 214.659,2.840 216.707,1.896 C218.755,0.953 220.979,0.480 223.379,0.480 C225.843,0.480 228.091,0.976 230.123,1.968 C232.155,2.960 233.891,4.289 235.331,5.952 C236.771,7.616 237.883,9.473 238.667,11.520 C239.451,13.568 239.843,15.680 239.843,17.856 C239.843,20.096 239.435,22.248 238.619,24.312 C237.803,26.376 236.651,28.217 235.163,29.832 ZM232.499,13.512 C232.051,12.152 231.395,10.936 230.531,9.864 C229.667,8.792 228.627,7.944 227.411,7.320 C226.195,6.696 224.803,6.384 223.235,6.384 C221.667,6.384 220.267,6.713 219.035,7.368 C217.803,8.024 216.763,8.888 215.915,9.960 C215.067,11.033 214.427,12.248 213.995,13.608 C213.563,14.968 213.347,16.352 213.347,17.760 C213.347,19.232 213.571,20.656 214.019,22.032 C214.467,23.408 215.115,24.632 215.963,25.704 C216.811,26.776 217.851,27.624 219.083,28.248 C220.315,28.872 221.715,29.184 223.283,29.184 C224.915,29.184 226.339,28.856 227.555,28.200 C228.771,27.545 229.803,26.672 230.651,25.584 C231.499,24.496 232.131,23.264 232.547,21.888 C232.963,20.512 233.171,19.136 233.171,17.760 C233.171,16.289 232.947,14.873 232.499,13.512 ZM195.156,30.971 C192.415,33.683 189.248,35.040 185.652,35.040 C183.411,35.040 181.315,34.600 179.364,33.720 C177.411,32.840 175.692,31.600 174.204,30.000 C172.716,28.400 171.555,26.552 170.724,24.456 C169.891,22.361 169.476,20.064 169.476,17.568 C169.476,15.232 169.899,13.032 170.748,10.968 C171.595,8.904 172.764,7.080 174.252,5.496 C175.740,3.912 177.492,2.681 179.508,1.800 C181.524,0.920 183.699,0.480 186.036,0.480 C189.267,0.480 192.027,1.152 194.316,2.496 C196.603,3.840 198.324,5.648 199.476,7.920 L194.532,11.568 C193.699,9.872 192.499,8.576 190.932,7.680 C189.363,6.784 187.668,6.336 185.844,6.336 C184.404,6.336 183.084,6.640 181.884,7.248 C180.684,7.856 179.652,8.688 178.788,9.744 C177.924,10.800 177.267,12.016 176.820,13.392 C176.371,14.768 176.148,16.224 176.148,17.760 C176.148,19.392 176.395,20.896 176.892,22.272 C177.387,23.648 178.092,24.856 179.004,25.896 C179.916,26.936 180.979,27.744 182.196,28.320 C183.411,28.896 184.755,29.184 186.228,29.184 C187.987,29.184 189.651,28.736 191.220,27.840 C192.606,27.048 193.918,25.928 195.156,24.484 L195.156,22.128 L188.292,22.128 L188.292,17.280 L200.628,17.280 L200.628,34.800 L195.156,34.800 L195.156,30.971 ZM140.244,0.720 L163.476,0.720 L163.476,6.528 L146.868,6.528 L146.868,14.736 L161.172,14.736 L161.172,20.112 L146.868,20.112 L146.868,28.992 L163.908,28.992 L163.908,34.800 L140.244,34.800 L140.244,0.720 ZM112.332,25.704 C113.212,26.776 114.268,27.624 115.500,28.248 C116.732,28.872 118.084,29.184 119.556,29.184 C120.580,29.184 121.636,29.008 122.724,28.656 C123.812,28.304 124.820,27.744 125.748,26.976 C126.676,26.208 127.428,25.200 128.004,23.952 L133.380,27.120 C132.676,28.817 131.564,30.257 130.044,31.440 C128.524,32.624 126.828,33.521 124.956,34.128 C123.084,34.736 121.220,35.040 119.364,35.040 C116.932,35.040 114.716,34.536 112.716,33.528 C110.716,32.520 108.980,31.176 107.508,29.496 C106.036,27.816 104.892,25.928 104.076,23.832 C103.260,21.736 102.852,19.616 102.852,17.472 C102.852,15.360 103.228,13.304 103.980,11.304 C104.732,9.304 105.836,7.488 107.292,5.856 C108.748,4.224 110.516,2.921 112.596,1.944 C114.676,0.968 117.028,0.480 119.652,0.480 C122.788,0.480 125.500,1.168 127.788,2.544 C130.076,3.920 131.764,5.712 132.852,7.920 L127.812,11.424 C127.236,10.144 126.484,9.137 125.556,8.400 C124.628,7.664 123.628,7.136 122.556,6.816 C121.484,6.496 120.452,6.336 119.460,6.336 C117.796,6.336 116.348,6.672 115.116,7.344 C113.884,8.016 112.860,8.897 112.044,9.984 C111.228,11.072 110.612,12.288 110.196,13.632 C109.780,14.976 109.572,16.336 109.572,17.712 C109.572,19.184 109.812,20.616 110.292,22.008 C110.772,23.400 111.452,24.632 112.332,25.704 ZM72.517,12.912 L72.517,34.800 L65.893,34.800 L65.893,0.720 L71.221,0.720 L88.789,23.184 L88.789,0.768 L95.365,0.768 L95.365,34.800 L89.893,34.800 L72.517,12.912 ZM50.101,26.304 L37.588,26.304 L34.741,34.800 L27.925,34.800 L40.501,0.720 L47.221,0.720 L59.749,34.800 L52.933,34.800 L50.101,26.304 ZM43.861,7.584 L39.149,21.648 L48.549,21.648 L43.861,7.584 ZM0.805,0.720 L7.429,0.720 L7.429,28.992 L24.805,28.992 L24.805,34.800 L0.805,34.800 L0.805,0.720 Z"/>
</svg>